<svg width="323" height="101" viewBox="0 0 323 101" fill="none" xmlns="http://www.w3.org/2000/svg">
<path d="M99.081 54.7674C101.626 57.4329 104.654 58.7636 108.166 58.7636C108.69 58.7636 109.328 58.7233 110.074 58.6427C110.82 58.562 111.545 58.4007 112.255 58.1588C112.961 57.9168 113.558 57.5741 114.042 57.1305C114.526 56.6869 114.767 56.1022 114.767 55.3723C114.767 54.5255 114.292 53.8883 113.344 53.4649C112.396 53.0415 111.223 52.6786 109.832 52.3761C108.44 52.0737 106.912 51.7592 105.259 51.4366C103.601 51.114 102.077 50.618 100.686 49.9526C99.2947 49.2873 98.1213 48.3678 97.1736 47.1944C96.226 46.025 95.7501 44.4482 95.7501 42.4683C95.7501 40.8553 96.1333 39.46 96.8994 38.2906C97.6656 37.1212 98.6576 36.1614 99.8673 35.4114C101.077 34.6654 102.42 34.121 103.896 33.7742C105.368 33.4314 106.791 33.2581 108.166 33.2581C109.174 33.2581 110.247 33.3508 111.376 33.5323C112.505 33.7137 113.618 33.9879 114.707 34.3509C115.8 34.7138 116.828 35.1775 117.796 35.7421C118.764 36.3066 119.615 36.9518 120.34 37.6817L121.429 38.831L117.187 42.8272C115.933 41.5771 114.53 40.6859 112.977 40.1617C111.42 39.6375 109.775 39.3754 108.041 39.3754C107.598 39.3754 107.049 39.4076 106.404 39.4681C105.759 39.5286 105.142 39.6617 104.557 39.8593C103.972 40.0609 103.476 40.3553 103.073 40.7383C102.67 41.1214 102.468 41.6174 102.468 42.2223C102.468 43.0691 102.932 43.7063 103.864 44.1297C104.791 44.5531 105.964 44.9079 107.376 45.1902C108.787 45.4725 110.312 45.7749 111.949 46.0975C113.582 46.4201 115.106 46.9162 116.522 47.5815C117.933 48.2469 119.106 49.1663 120.034 50.3397C120.961 51.5132 121.429 53.0859 121.429 55.0658C121.429 56.8442 121.014 58.3483 120.187 59.5782C119.36 60.8122 118.3 61.8001 117.005 62.5461C115.715 63.2921 114.288 63.8365 112.735 64.1833C111.179 64.5261 109.654 64.6995 108.162 64.6995C105.497 64.6995 103.021 64.2478 100.742 63.3365C98.46 62.4292 96.4317 60.9452 94.6533 58.8846L99.081 54.7674Z" fill="white"/>
<path d="M129.915 67.3073C131.326 68.5977 132.721 69.5494 134.092 70.1543C135.463 70.7591 137.121 71.0616 139.06 71.0616C140.794 71.0616 142.411 70.6462 143.907 69.8196C145.399 68.9929 146.472 67.7308 147.117 66.0331C147.44 65.2266 147.609 64.3676 147.633 63.4603C147.654 62.553 147.666 61.6739 147.666 60.8271C145.202 62.8071 142.375 63.795 139.185 63.795C137.689 63.795 136.225 63.5732 134.794 63.1297C133.358 62.6861 132.048 62.0489 130.858 61.2223C129.665 60.3956 128.636 59.3754 127.769 58.1616C126.902 56.9519 126.305 55.5768 125.983 54.0404C125.62 52.2661 125.438 50.4474 125.438 48.5885V34.2327H132.1V48.2255C132.1 49.4756 132.241 50.6571 132.524 51.7701C132.806 52.8831 133.249 53.8509 133.858 54.6775C134.463 55.5042 135.262 56.1534 136.25 56.6172C137.238 57.0809 138.439 57.3148 139.855 57.3148C141.266 57.3148 142.468 57.0809 143.46 56.6172C144.452 56.1534 145.258 55.5163 145.883 54.7098C146.508 53.9033 146.964 52.9435 147.246 51.8306C147.529 50.7216 147.67 49.52 147.67 48.2255V34.2327H154.331V61.7344C154.331 62.9079 154.259 64.0773 154.122 65.2467C153.981 66.4161 153.686 67.5493 153.243 68.6381C152.638 70.0897 151.847 71.364 150.88 72.4528C149.912 73.5416 148.799 74.4731 147.549 75.2393C146.295 76.0054 144.952 76.5821 143.52 76.9652C142.085 77.3483 140.601 77.5418 139.068 77.5418C136.564 77.5418 134.12 77.0982 131.737 76.2071C129.354 75.3199 127.273 73.9851 125.499 72.2108L129.915 67.3073Z" fill="white"/>
<path d="M159.776 47.6727C159.776 45.6927 160.118 43.8378 160.804 42.0998C161.489 40.3618 162.469 38.8375 163.739 37.5269C165.014 36.2163 166.526 35.184 168.284 34.438C170.042 33.692 172.01 33.317 174.192 33.317C176.373 33.317 178.341 33.692 180.095 34.438C181.853 35.184 183.366 36.2163 184.64 37.5269C185.91 38.8375 186.89 40.3658 187.576 42.0998C188.261 43.8378 188.604 45.6927 188.604 47.6727V63.7261H181.942V48.826C181.942 47.5356 181.801 46.342 181.519 45.2532C181.236 44.1644 180.793 43.2168 180.184 42.4062C179.579 41.5997 178.781 40.9626 177.793 40.4988C176.805 40.0351 175.603 39.8012 174.188 39.8012C172.772 39.8012 171.575 40.0351 170.583 40.4988C169.595 40.9626 168.796 41.5997 168.191 42.4062C167.586 43.2127 167.139 44.1644 166.857 45.2532C166.574 46.346 166.433 47.5356 166.433 48.826V63.7261H159.771V47.6727H159.776Z" fill="white"/>
<path d="M221.743 59.4798C219.965 61.2582 217.989 62.5607 215.807 63.3873C213.626 64.214 211.283 64.6294 208.779 64.6294C206.516 64.6294 204.448 64.2342 202.569 63.4478C200.69 62.6615 199.076 61.5687 197.722 60.1775C196.367 58.7862 195.318 57.141 194.572 55.2417C193.826 53.3424 193.451 51.2656 193.451 49.0034C193.451 46.8218 193.834 44.7733 194.6 42.8538C195.367 40.9344 196.427 39.2689 197.782 37.8576C199.133 36.4421 200.75 35.3332 202.629 34.5267C204.508 33.7202 206.557 33.317 208.779 33.317C212.009 33.317 214.888 34.1436 217.408 35.801C219.933 37.4584 221.779 39.7972 222.953 42.8296C223.477 44.12 223.8 45.3338 223.921 46.4629C224.042 47.592 224.102 48.8461 224.102 50.2172C224.102 50.4188 224.09 50.6325 224.07 50.8543C224.05 51.0761 224.018 51.2898 223.977 51.4915H200.657C200.738 52.5802 201.012 53.5521 201.476 54.3989C201.94 55.2457 202.536 55.9756 203.262 56.5805C203.988 57.1853 204.835 57.641 205.807 57.9435C206.775 58.2459 207.767 58.3991 208.775 58.3991C210.509 58.3991 212.106 58.137 213.561 57.6128C215.013 57.0886 216.388 56.2417 217.678 55.0683L221.743 59.4798ZM217.138 45.729C217.017 44.6806 216.695 43.7611 216.17 42.9708C215.646 42.1844 214.997 41.5191 214.231 40.9707C213.464 40.4263 212.606 40.0109 211.658 39.7286C210.71 39.4464 209.751 39.3052 208.779 39.3052C207.811 39.3052 206.871 39.4585 205.96 39.7609C205.053 40.0634 204.222 40.4867 203.476 41.0311C202.73 41.5755 202.101 42.253 201.597 43.0595C201.093 43.866 200.778 44.7572 200.657 45.725H217.138V45.729Z" fill="white"/>
<path d="M228.646 49.0134C228.646 46.5899 229.017 44.4486 229.767 42.5937C230.513 40.7387 231.573 39.1822 232.948 37.9321C234.319 36.682 235.964 35.7425 237.884 35.1134C239.799 34.4883 241.933 34.1738 244.276 34.1738V40.654C241.61 40.654 239.449 41.3315 237.795 42.6824C236.138 44.0373 235.311 46.106 235.311 48.8925V63.7321H228.65V49.0134H228.646Z" fill="white"/>
<path d="M253.296 66.8283C254.587 68.1187 256.055 69.139 257.688 69.889C259.325 70.635 261.071 71.01 262.926 71.01C264.825 71.01 266.571 70.5745 268.164 69.7075C269.761 68.8405 270.923 67.4977 271.648 65.6791C271.971 64.8322 272.152 63.9531 272.193 63.0458C272.233 62.1385 272.253 61.2393 272.253 60.3521C270.757 61.6062 269.245 62.4813 267.709 62.9854C266.172 63.4894 264.438 63.7435 262.499 63.7435C260.317 63.7435 258.309 63.3725 256.47 62.6224C254.631 61.8764 253.046 60.828 251.716 59.473C250.385 58.1221 249.345 56.5253 248.599 54.6865C247.849 52.8476 247.478 50.8394 247.478 48.6579C247.478 46.4359 247.881 44.3874 248.687 42.5123C249.494 40.6332 250.615 39.0202 252.05 37.6652C253.482 36.3144 255.147 35.2538 257.047 34.4876C258.946 33.7215 260.982 33.3384 263.164 33.3384C266.717 33.3384 269.797 34.2457 272.402 36.0644C275.007 37.883 276.915 40.4678 278.129 43.8189C278.532 44.9076 278.774 46.1214 278.854 47.4521C278.935 48.7829 278.975 50.037 278.975 51.2064V60.5941C278.975 61.7675 278.895 63.0176 278.733 64.3483C278.572 65.6831 278.27 66.8928 277.826 67.9816C277.221 69.4736 276.383 70.8084 275.314 71.9778C274.241 73.1473 273.044 74.1473 271.709 74.978C270.378 75.8047 268.943 76.4297 267.406 76.8572C265.87 77.2806 264.317 77.4943 262.745 77.4943C260.16 77.4943 257.688 77.0104 255.325 76.0426C252.962 75.0748 250.873 73.6392 249.054 71.7399L253.296 66.8283ZM254.208 48.6538C254.208 49.9483 254.438 51.1177 254.905 52.1661C255.369 53.2186 256.006 54.1259 256.813 54.8921C257.619 55.6583 258.571 56.247 259.66 56.6503C260.748 57.0535 261.922 57.2552 263.172 57.2552C264.462 57.2552 265.656 57.0535 266.745 56.6503C267.834 56.247 268.793 55.6704 269.624 54.9244C270.451 54.1784 271.096 53.2791 271.56 52.2306C272.023 51.1822 272.257 49.9886 272.257 48.6579C272.257 47.3675 272.023 46.1738 271.56 45.0851C271.096 43.9963 270.459 43.0567 269.652 42.2663C268.846 41.48 267.886 40.8751 266.777 40.4477C265.664 40.0243 264.466 39.8105 263.172 39.8105C261.922 39.8105 260.74 40.0323 259.627 40.4759C258.515 40.9195 257.567 41.5365 256.781 42.3228C255.994 43.1091 255.365 44.0406 254.901 45.1093C254.438 46.1819 254.208 47.3634 254.208 48.6538Z" fill="white"/>
<path d="M283.404 26.5364C283.404 25.367 283.787 24.3871 284.554 23.6008C285.32 22.8144 286.288 22.4193 287.461 22.4193C288.63 22.4193 289.61 22.8144 290.397 23.6008C291.183 24.3871 291.578 25.367 291.578 26.5364C291.578 27.7099 291.183 28.6858 290.397 29.4761C289.61 30.2665 288.63 30.6577 287.461 30.6577C286.288 30.6577 285.32 30.2625 284.554 29.4761C283.787 28.6858 283.404 27.7058 283.404 26.5364ZM284.13 34.2264H290.792V63.7242H284.13V34.2264Z" fill="white"/>
<path d="M322.409 60.2153C320.994 61.792 319.288 62.9332 317.292 63.6389C315.292 64.3446 313.243 64.6995 311.143 64.6995C308.88 64.6995 306.791 64.3043 304.872 63.518C302.952 62.7316 301.287 61.6307 299.876 60.2153C298.46 58.804 297.363 57.1345 296.573 55.2191C295.787 53.2996 295.392 51.2108 295.392 48.9485C295.392 46.6863 295.795 44.6096 296.601 42.7102C297.408 40.8109 298.509 39.1576 299.904 37.7422C301.299 36.3308 302.965 35.2299 304.9 34.4396C306.84 33.6532 308.917 33.2581 311.138 33.2581C313.239 33.2581 315.288 33.6129 317.288 34.3186C319.288 35.0243 320.994 36.1655 322.405 37.7422L318.046 42.3473C317.078 41.4198 316.006 40.7625 314.836 40.3794C313.663 39.9964 312.433 39.8028 311.143 39.8028C309.888 39.8028 308.711 40.0447 307.598 40.5286C306.485 41.0125 305.517 41.6577 304.691 42.4683C303.864 43.2748 303.215 44.2345 302.751 45.3435C302.287 46.4564 302.053 47.6541 302.053 48.9485C302.053 50.2389 302.283 51.4406 302.751 52.5536C303.215 53.6665 303.852 54.6344 304.658 55.461C305.465 56.2877 306.425 56.945 307.533 57.4289C308.642 57.9128 309.844 58.1547 311.138 58.1547C312.429 58.1547 313.663 57.9612 314.832 57.5781C316.002 57.195 317.074 56.5377 318.042 55.6102L322.409 60.2153Z" fill="white"/>
<path d="M43.6747 78.1097L3.37302 37.6506C-1.13141 33.1291 -1.12292 25.8132 3.39003 21.3002C7.91573 16.7745 15.2572 16.783 19.7744 21.3172L60.0761 61.7763C64.5806 66.2978 64.5721 73.6138 60.0592 78.1267C55.5292 82.6482 48.1919 82.6439 43.6747 78.1097Z" fill="white"/>
<path d="M40.5697 97.2268C38.5536 99.243 35.8356 100.238 32.9815 100.238C29.4553 100.238 25.6953 98.7156 22.7604 95.7722L6.46104 79.4303C1.35686 74.3133 0.595485 66.7379 4.59376 62.1611C4.73837 61.9825 4.89576 61.8124 5.05314 61.6592C5.21052 61.5019 5.3764 61.3445 5.55505 61.1999C7.5159 59.4772 10.0212 58.635 12.6498 58.635C16.1887 58.635 19.9361 60.1578 22.871 63.1012L39.1575 79.443C44.4531 84.7599 45.0912 92.7054 40.5697 97.2268Z" fill="white"/>
<path d="M59.2273 38.0559C59.0826 38.2345 58.9125 38.4132 58.7466 38.5833C58.5892 38.7407 58.4446 38.8853 58.2745 39.0214C56.3136 40.7569 53.7871 41.5948 51.1456 41.5948C47.6068 41.5948 43.8594 40.0848 40.9245 37.1414L24.638 20.7868C19.3424 15.4827 18.7043 7.52441 23.2173 3.01147C25.2419 0.986815 27.9642 0 30.8183 0C34.3571 0 38.1045 1.50999 41.0394 4.45339L57.3387 20.808C62.4173 25.9122 63.2 33.4664 59.2273 38.0559Z" fill="white"/>
</svg>
